<?xml version="1.0" encoding="UTF-8"?>
<svg id="Layer_1" data-name="Layer 1" xmlns="http://www.w3.org/2000/svg" xmlns:xlink="http://www.w3.org/1999/xlink" viewBox="0 0 988.92 1041">
  <defs>
    <style>
      .cls-1 {
        fill: url(#linear-gradient-2);
      }

      .cls-2 {
        fill: url(#linear-gradient-11);
      }

      .cls-2, .cls-3, .cls-4, .cls-5, .cls-6, .cls-7, .cls-8 {
        stroke: #fff;
      }

      .cls-2, .cls-3, .cls-4, .cls-5, .cls-6, .cls-7, .cls-8, .cls-9 {
        stroke-miterlimit: 10;
      }

      .cls-2, .cls-3, .cls-4, .cls-5, .cls-7 {
        stroke-width: 3px;
      }

      .cls-10 {
        fill: url(#linear-gradient-10);
      }

      .cls-3 {
        fill: url(#linear-gradient-12);
      }

      .cls-4 {
        fill: url(#linear-gradient-9);
      }

      .cls-5 {
        fill: url(#linear-gradient-6);
      }

      .cls-11 {
        fill: url(#linear-gradient-3);
      }

      .cls-6 {
        fill: url(#linear-gradient-4);
      }

      .cls-12 {
        fill: url(#linear-gradient-7);
      }

      .cls-7 {
        fill: url(#linear-gradient-5);
      }

      .cls-8 {
        fill: url(#linear-gradient-8);
      }

      .cls-9 {
        fill: none;
        stroke: #231f20;
      }

      .cls-13 {
        fill: url(#linear-gradient);
      }
    </style>
    <linearGradient id="linear-gradient" x1="770.79" y1="623.83" x2="1064.44" y2="914.69" gradientUnits="userSpaceOnUse">
      <stop offset="0" stop-color="#a4c54d"/>
      <stop offset=".11" stop-color="#9cbc51"/>
      <stop offset=".3" stop-color="#89a45d"/>
      <stop offset=".53" stop-color="#6a7d70"/>
      <stop offset=".8" stop-color="#3f478a"/>
      <stop offset="1" stop-color="#1c1ca0"/>
    </linearGradient>
    <linearGradient id="linear-gradient-2" x1="22.93" y1="302.23" x2="648.04" y2="1080.99" gradientUnits="userSpaceOnUse">
      <stop offset="0" stop-color="#691f20"/>
      <stop offset="1" stop-color="#df2420"/>
    </linearGradient>
    <linearGradient id="linear-gradient-3" x1="62.36" y1="152.99" x2="575.59" y2="152.99" gradientUnits="userSpaceOnUse">
      <stop offset="0" stop-color="#db0a0a"/>
      <stop offset="1" stop-color="#a71c23"/>
    </linearGradient>
    <linearGradient id="linear-gradient-4" x1="506.07" y1="710.87" x2="439.64" y2="1019.04" gradientUnits="userSpaceOnUse">
      <stop offset="0" stop-color="#afce4c"/>
      <stop offset=".97" stop-color="#6f9f51"/>
    </linearGradient>
    <linearGradient id="linear-gradient-5" x1="542.16" y1="690.77" x2="784.76" y2="690.77" gradientUnits="userSpaceOnUse">
      <stop offset="0" stop-color="#a5c24f"/>
      <stop offset="1" stop-color="#76a551"/>
    </linearGradient>
    <linearGradient id="linear-gradient-6" x1="659.34" y1="571.46" x2="903.82" y2="571.46" xlink:href="#linear-gradient-5"/>
    <linearGradient id="linear-gradient-7" x1="596.9" y1="176.5" x2="298.99" y2="818.03" gradientUnits="userSpaceOnUse">
      <stop offset="0" stop-color="#de201f"/>
      <stop offset=".27" stop-color="#d52020"/>
      <stop offset=".71" stop-color="#bd2122"/>
      <stop offset="1" stop-color="#aa2325"/>
    </linearGradient>
    <linearGradient id="linear-gradient-8" x1="476.65" y1="706.53" x2="202.77" y2="207.44" gradientUnits="userSpaceOnUse">
      <stop offset=".08" stop-color="#d41d1f"/>
      <stop offset=".27" stop-color="#cb1c1e"/>
      <stop offset=".57" stop-color="#b31b1d"/>
      <stop offset=".95" stop-color="#8c1a1c"/>
      <stop offset="1" stop-color="#871a1c"/>
    </linearGradient>
    <linearGradient id="linear-gradient-9" x1="522.18" y1="314.89" x2="769.03" y2="477.48" gradientUnits="userSpaceOnUse">
      <stop offset="0" stop-color="#e91f21"/>
      <stop offset=".59" stop-color="#e02220"/>
      <stop offset="1" stop-color="#d7271f"/>
    </linearGradient>
    <linearGradient id="linear-gradient-10" x1="423.55" y1="744.83" x2="494.94" y2="964.36" gradientUnits="userSpaceOnUse">
      <stop offset="0" stop-color="red"/>
      <stop offset=".22" stop-color="#ef0908"/>
      <stop offset=".63" stop-color="#c6221f"/>
      <stop offset=".97" stop-color="#a13a34"/>
    </linearGradient>
    <linearGradient id="linear-gradient-11" x1="659.92" y1="530.31" x2="667.95" y2="859.6" gradientUnits="userSpaceOnUse">
      <stop offset="0" stop-color="#ed1e79"/>
      <stop offset="1" stop-color="#1b1464"/>
    </linearGradient>
    <linearGradient id="linear-gradient-12" x1="792.73" y1="434.98" x2="767.3" y2="718.75" gradientUnits="userSpaceOnUse">
      <stop offset="0" stop-color="#ed1e79"/>
      <stop offset=".96" stop-color="#1b1464"/>
      <stop offset="1" stop-color="lime"/>
    </linearGradient>
  </defs>
  <path class="cls-13" d="M988.92,546.54c0,100.43-29.95,193.91-81.44,271.93-16.33,24.87-34.95,48.2-55.44,69.65l-.08.08c-26.24,18.66-60.4,36.45-99.14,50.57-1.54.54-3.08,1.12-4.58,1.62-51.9,18.33-101.35,26.24-138.05,23.87,102.02-28.16,188.87-92.69,245.86-178.75,1.46-2.12,2.87-4.29,4.21-6.46,42.82-67.19,67.61-146.96,67.61-232.53,0-167.71-95.23-313.13-234.57-385.2-34.07-60.57-115.14-101.35-117.68-102.6,234.48,38.7,413.32,242.36,413.32,487.8Z"/>
  <path class="cls-1" d="M851.96,888.2c-90.06,94.14-216.95,152.8-357.5,152.8C221.36,1041,0,819.64,0,546.54c0-57.15,9.71-112.01,27.53-163.04,9.41-26.95,21.04-52.82,34.74-77.4.04-.04.08-.08.08-.13,19.66-23.74,46.7-48.4,78.9-70.65,44.07-30.45,88.98-50.24,124.64-57.03-86.27,53.61-152.3,136.72-184,235.23-13.54,41.91-20.83,86.6-20.83,133.01,0,239.36,194.04,433.39,433.39,433.39,39.28,0,77.4-5.25,113.56-15.04h.04c36.53,3,86.15-4.75,137.76-23.58.79-.29,1.62-.58,2.42-.92,1.5-.5,3.04-1.08,4.58-1.62,38.74-14.12,72.9-31.91,99.14-50.57Z"/>
  <path class="cls-11" d="M572.15,97.9l-23.74,18.62-80.61,63.11c-5.87,4.58-14.5.42-14.5-7.08v-56.36c-.08,0-.17-.37-.21-1.04-68.27,6.42-131.84,28.7-187.16,63.11l-.04.04c-35.66,6.79-80.56,26.58-124.64,57.03-32.2,22.24-59.24,46.9-78.9,70.65C140.47,165.97,284.64,67.86,452.72,53.87c.08-16.5.25-32.99.38-44.99.08-7.41,8.66-11.54,14.5-6.96l66.07,51.7,38.49,30.16c4.58,3.62,4.58,10.54,0,14.12Z"/>
  <path class="cls-6" d="M468.79,746.19s-70.77,96.93-70.77,136.01,31.66,70.77,70.77,70.77,70.77-31.7,70.77-70.77-70.77-136.01-70.77-136.01ZM512.7,887.83c0,3.33-2.71,6.08-6.04,6.08h-19.16c-3.37,0-6.08,2.71-6.08,6.04v19.16c0,3.33-2.71,6.08-6.04,6.08h-13.12c-3.37,0-6.08-2.75-6.08-6.08v-19.16c0-3.33-2.71-6.04-6.04-6.04h-19.16c-3.37,0-6.08-2.75-6.08-6.08v-13.12c0-3.33,2.71-6.04,6.08-6.04h19.16c3.33,0,6.04-2.75,6.04-6.08v-19.16c0-3.33,2.71-6.04,6.08-6.04h13.12c3.33,0,6.04,2.71,6.04,6.04v19.16c0,3.33,2.71,6.08,6.08,6.08h19.16c3.33,0,6.04,2.71,6.04,6.04v13.12Z"/>
  <path class="cls-7" d="M761.12,694.75c10.27-1.73,17.54,10.19,11.16,18.42-2.32,2.99-4.85,5.87-7.6,8.62l-66.94,66.94c-35.45,35.49-93.52,35.49-128.97,0-35.49-35.45-35.49-93.52,0-128.97l66.94-66.98c7.08-7.12,15.12-12.79,23.7-17.04,12.79-6.37,26.79-9.54,40.78-9.54,6.08,0,12.21.58,18.2,1.83,17,3.37,33.2,11.62,46.28,24.74,8.35,8.35,14.75,17.94,19.16,28.19,1.86,4.33.8,9.38-2.54,12.71h0c-9.43,9.43-22.06,13.83-34.47,13.18-4.13-.22-7.64-2.95-9.5-6.65-2.12-4.22-4.94-8.16-8.44-11.66-6.41-6.41-14.33-10.5-22.66-12.25-3.12-.67-6.29-1-9.46-1-11.66,0-23.29,4.42-32.16,13.25l-5.29,5.29-54.78,54.82c-17.7,17.7-17.7,46.61,0,64.28,17.66,17.66,46.57,17.66,64.23,0l54.5-54.5c2.52-2.52,6.06-3.82,9.59-3.32,9.37,1.32,18.91,1.2,28.24-.38Z"/>
  <path class="cls-5" d="M877.2,602.48l-66.94,66.98c-7.12,7.08-15.12,12.79-23.7,17.04-18.37,9.12-39.24,11.71-59.03,7.71-17-3.42-33.16-11.66-46.28-24.74-10.33-10.33-17.66-22.58-21.91-35.62l5.29-5.29c8.87-8.83,20.5-13.25,32.16-13.25,3.17,0,6.33.33,9.46,1,2.12,6.37,5.75,12.33,10.79,17.37,6.46,6.41,14.37,10.5,22.7,12.25,14.54,3.08,30.33-1,41.57-12.25l5.33-5.33,54.78-54.78c17.66-17.7,17.66-46.61,0-64.28-8.83-8.83-20.45-13.25-32.12-13.25s-23.33,4.42-32.16,13.25l-58.74,58.74c-6-1.25-12.12-1.83-18.2-1.83-14,0-27.99,3.17-40.78,9.54,4.29-12.91,11.58-25.04,21.83-35.28l66.98-66.94c17.75-17.75,41.11-26.62,64.48-26.62s46.74,8.87,64.48,26.62c35.49,35.49,35.49,93.52,0,128.97Z"/>
  <path class="cls-12" d="M671.9,452.33c0,26.49-10.04,52.95-30.12,73.07l-171.6,171.6c-.75.75-1.96.75-2.71,0l-144.78-144.78-26.83-26.83s-.02-.02-.03-.03c-1.2-1.2-.33-3.26,1.37-3.26h75.48c.8,0,1.51-.5,1.79-1.24l12.24-32.66,5.69-15.19c.65-1.75,3.16-1.62,3.65.18l1.2,4.48,29.83,112.06c.49,1.83,3.05,1.92,3.66.13l24.83-72.18c.56-1.64,2.84-1.75,3.56-.17l16.39,36.29c.66,1.46,2.71,1.52,3.45.1l16.05-30.76c.33-.63.98-1.03,1.7-1.03h72.74c2.42,0,4.58-.96,6.17-2.54,1.17-1.12,2-2.62,2.37-4.29.08-.58.17-1.21.17-1.83,0-4.79-3.92-8.66-8.71-8.66h-79.19c-.65,0-1.25.33-1.61.87l-10.01,15.44c-.85,1.31-2.83,1.11-3.39-.35l-19.27-49.76c-.66-1.69-3.08-1.61-3.62.13l-22.17,71.91c-.57,1.85-3.2,1.79-3.69-.08l-19.43-75.1-11.5-44.32c-.48-1.83-3.04-1.94-3.66-.15l-29.04,82.76c-.27.77-.99,1.28-1.81,1.28h-78.46c-.67,0-1.3-.35-1.65-.92-24.47-39.77-19.49-92.82,14.9-127.22,20.08-20.12,46.57-30.16,73.07-30.16s52.99,10.04,73.07,30.16l25.47,25.47c.75.75,1.96.75,2.71,0l25.47-25.47c40.16-40.2,105.93-40.2,146.13,0,20.08,20.12,30.12,46.57,30.12,73.07Z"/>
  <path class="cls-8" d="M466.97,355.39s-.08.08-.13.08l-.08-.04c-7.75-8.37-16.37-15.37-25.66-21.08-19.91-12.21-42.82-18.33-65.98-18.33-33.12,0-66.73,12.46-92.81,37.45-54.78,52.49-53.61,141.47.04,195.12l160.38,160.38c2.17,2.17,3.08,5.08,2.79,7.91-.25,2.17-1.17,4.21-2.79,5.83l-33.57,33.53-18.25,18.25c-7.12,7.12-19.33,2.08-19.33-8.04v-47.72l-.04-.1-145.51-145.51c-66.15-66.19-58.78-180.83,16.5-256.1,40.74-40.74,85.73-39.03,118.05-39.03,45.7,0,73.98,25.45,89.73,47.16,10.75,14.7,15.75,27.7,16.54,29.91.08.21.13.33.13.33Z"/>
  <path class="cls-4" d="M751.94,479.44c9.15,0,13.89,10.93,7.64,17.61l-54.04,57.75-1.25-2.62-22.91-48.28-10.5-22.07c-3.37-7.09,1.98-15.24,9.83-14.95l7.46.27c2.72.1,5.13-1.87,5.46-4.57.64-5.2.95-10.43.95-15.66,0-33.2-12.66-66.4-37.99-91.69-50.61-50.61-132.68-50.61-183.33,0l-3.33,3.33-3.08-3.08s.08-.04.13-.08c0,0-.04-.13-.13-.33h0c13.45-52.5,61.76-88.98,115.89-86.36,41.69,2.02,83.76,18.47,118.51,46.04,36.78,29.2,49.78,76.77,49.78,120.26,0,12.77-1.43,25.54-4.28,38.05-.75,3.29,1.83,6.4,5.2,6.4h0Z"/>
  <path class="cls-9" d="M466.84,355.06l-.08.37.08-.37Z"/>
  <path class="cls-13" d="M988.92,546.54c0,100.43-29.95,193.91-81.44,271.93-16.33,24.87-34.95,48.2-55.44,69.65l-.08.08c-26.24,18.66-60.4,36.45-99.14,50.57-1.54.54-3.08,1.12-4.58,1.62-51.9,18.33-101.35,26.24-138.05,23.87,102.02-28.16,188.87-92.69,245.86-178.75,1.46-2.12,2.87-4.29,4.21-6.46,42.82-67.19,67.61-146.96,67.61-232.53,0-167.71-95.23-313.13-234.57-385.2-34.07-60.57-115.14-101.35-117.68-102.6,234.48,38.7,413.32,242.36,413.32,487.8Z"/>
  <path class="cls-1" d="M851.96,888.2c-90.06,94.14-216.95,152.8-357.5,152.8C221.36,1041,0,819.64,0,546.54c0-57.15,9.71-112.01,27.53-163.04,9.41-26.95,21.04-52.82,34.74-77.4.04-.04.08-.08.08-.13,19.66-23.74,46.7-48.4,78.9-70.65,44.07-30.45,88.98-50.24,124.64-57.03-86.27,53.61-152.3,136.72-184,235.23-13.54,41.91-20.83,86.6-20.83,133.01,0,239.36,194.04,433.39,433.39,433.39,39.28,0,77.4-5.25,113.56-15.04h.04c36.53,3,86.15-4.75,137.76-23.58.79-.29,1.62-.58,2.42-.92,1.5-.5,3.04-1.08,4.58-1.62,38.74-14.12,72.9-31.91,99.14-50.57Z"/>
  <path class="cls-11" d="M572.15,97.9l-23.74,18.62-80.61,63.11c-5.87,4.58-14.5.42-14.5-7.08v-56.36c-.08,0-.17-.37-.21-1.04-68.27,6.42-131.84,28.7-187.16,63.11l-.04.04c-35.66,6.79-80.56,26.58-124.64,57.03-32.2,22.24-59.24,46.9-78.9,70.65C140.47,165.97,284.64,67.86,452.72,53.87c.08-16.5.25-32.99.38-44.99.08-7.41,8.66-11.54,14.5-6.96l66.07,51.7,38.49,30.16c4.58,3.62,4.58,10.54,0,14.12Z"/>
  <path class="cls-10" d="M468.79,746.19s-70.77,96.93-70.77,136.01,31.66,70.77,70.77,70.77,70.77-31.7,70.77-70.77-70.77-136.01-70.77-136.01ZM512.7,887.83c0,3.33-2.71,6.08-6.04,6.08h-19.16c-3.37,0-6.08,2.71-6.08,6.04v19.16c0,3.33-2.71,6.08-6.04,6.08h-13.12c-3.37,0-6.08-2.75-6.08-6.08v-19.16c0-3.33-2.71-6.04-6.04-6.04h-19.16c-3.37,0-6.08-2.75-6.08-6.08v-13.12c0-3.33,2.71-6.04,6.08-6.04h19.16c3.33,0,6.04-2.75,6.04-6.08v-19.16c0-3.33,2.71-6.04,6.08-6.04h13.12c3.33,0,6.04,2.71,6.04,6.04v19.16c0,3.33,2.71,6.08,6.08,6.08h19.16c3.33,0,6.04,2.71,6.04,6.04v13.12Z"/>
  <path class="cls-2" d="M761.12,694.75c10.27-1.73,17.54,10.19,11.16,18.42-2.32,2.99-4.85,5.87-7.6,8.62l-66.94,66.94c-35.45,35.49-93.52,35.49-128.97,0-35.49-35.45-35.49-93.52,0-128.97l66.94-66.98c7.08-7.12,15.12-12.79,23.7-17.04,12.79-6.37,26.79-9.54,40.78-9.54,6.08,0,12.21.58,18.2,1.83,17,3.37,33.2,11.62,46.28,24.74,8.35,8.35,14.75,17.94,19.16,28.19,1.86,4.33.8,9.38-2.54,12.71h0c-9.43,9.43-22.06,13.83-34.47,13.18-4.13-.22-7.64-2.95-9.5-6.65-2.12-4.22-4.94-8.16-8.44-11.66-6.41-6.41-14.33-10.5-22.66-12.25-3.12-.67-6.29-1-9.46-1-11.66,0-23.29,4.42-32.16,13.25l-5.29,5.29-54.78,54.82c-17.7,17.7-17.7,46.61,0,64.28,17.66,17.66,46.57,17.66,64.23,0l54.5-54.5c2.52-2.52,6.06-3.82,9.59-3.32,9.37,1.32,18.91,1.2,28.24-.38Z"/>
  <path class="cls-3" d="M877.2,602.48l-66.94,66.98c-7.12,7.08-15.12,12.79-23.7,17.04-18.37,9.12-39.24,11.71-59.03,7.71-17-3.42-33.16-11.66-46.28-24.74-10.33-10.33-17.66-22.58-21.91-35.62l5.29-5.29c8.87-8.83,20.5-13.25,32.16-13.25,3.17,0,6.33.33,9.46,1,2.12,6.37,5.75,12.33,10.79,17.37,6.46,6.41,14.37,10.5,22.7,12.25,14.54,3.08,30.33-1,41.57-12.25l5.33-5.33,54.78-54.78c17.66-17.7,17.66-46.61,0-64.28-8.83-8.83-20.45-13.25-32.12-13.25s-23.33,4.42-32.16,13.25l-58.74,58.74c-6-1.25-12.12-1.83-18.2-1.83-14,0-27.99,3.17-40.78,9.54,4.29-12.91,11.58-25.04,21.83-35.28l66.98-66.94c17.75-17.75,41.11-26.62,64.48-26.62s46.74,8.87,64.48,26.62c35.49,35.49,35.49,93.52,0,128.97Z"/>
  <path class="cls-8" d="M466.97,355.39s-.08.08-.13.08l-.08-.04c-7.75-8.37-16.37-15.37-25.66-21.08-19.91-12.21-42.82-18.33-65.98-18.33-33.12,0-66.73,12.46-92.81,37.45-54.78,52.49-53.61,141.47.04,195.12l160.38,160.38c2.17,2.17,3.08,5.08,2.79,7.91-.25,2.17-1.17,4.21-2.79,5.83l-33.57,33.53-18.25,18.25c-7.12,7.12-19.33,2.08-19.33-8.04v-47.72l-.04-.1-145.51-145.51c-66.15-66.19-58.78-180.83,16.5-256.1,40.74-40.74,85.73-39.03,118.05-39.03,45.7,0,73.98,25.45,89.73,47.16,10.75,14.7,15.75,27.7,16.54,29.91.08.21.13.33.13.33Z"/>
  <path class="cls-4" d="M751.94,479.44c9.15,0,13.89,10.93,7.64,17.61l-54.04,57.75-1.25-2.62-22.91-48.28-10.5-22.07c-3.37-7.09,1.98-15.24,9.83-14.95l7.46.27c2.72.1,5.13-1.87,5.46-4.57.64-5.2.95-10.43.95-15.66,0-33.2-12.66-66.4-37.99-91.69-50.61-50.61-132.68-50.61-183.33,0l-3.33,3.33-3.08-3.08s.08-.04.13-.08c0,0-.04-.13-.13-.33h0c13.45-52.5,61.76-88.98,115.89-86.36,41.69,2.02,83.76,18.47,118.51,46.04,36.78,29.2,49.78,76.77,49.78,120.26,0,12.77-1.43,25.54-4.28,38.05-.75,3.29,1.83,6.4,5.2,6.4h0Z"/>
  <path class="cls-9" d="M466.84,355.06l-.08.37.08-.37Z"/>
</svg>